<?xml version="1.0" encoding="utf-8"?>
<!-- Generator: Adobe Illustrator 19.0.0, SVG Export Plug-In . SVG Version: 6.00 Build 0)  -->
<svg version="1.1" id="圖層_1" xmlns="http://www.w3.org/2000/svg" xmlns:xlink="http://www.w3.org/1999/xlink" x="0px" y="0px"
	 viewBox="-86.5 151 275 200" style="enable-background:new -86.5 151 275 200;" xml:space="preserve">
<style type="text/css">
	.st0{fill:none;stroke:#231815;stroke-linecap:round;stroke-linejoin:round;stroke-miterlimit:10;}
	.st1{fill:#FFFFFF;stroke:#231815;stroke-linecap:round;stroke-linejoin:round;stroke-miterlimit:10;}
</style>
<g id="XMLID_1808_">
	<g id="XMLID_1564_">
		<polyline id="XMLID_1541_" class="st0" points="-70.6,237.9 -20.6,207.7 22.9,229.3 71.7,186.9 122.8,248.7 156.9,192.8 		"/>
		<circle id="XMLID_1540_" class="st1" cx="-20.6" cy="207.7" r="5.9"/>
		<circle id="XMLID_1542_" class="st1" cx="71.7" cy="189" r="5.9"/>
		<circle id="XMLID_1543_" class="st1" cx="156.9" cy="192.8" r="5.9"/>
		<circle id="XMLID_1544_" class="st1" cx="122.8" cy="246.7" r="5.9"/>
		<circle id="XMLID_1545_" class="st1" cx="-70.6" cy="238.9" r="5.9"/>
		<circle id="XMLID_1546_" class="st1" cx="23.1" cy="228.6" r="5.9"/>
		<polyline id="XMLID_1550_" class="st0" points="-64.1,211.4 -32.5,248.7 23.1,204.5 67.3,219.3 110.1,185.3 156.9,222.7 		"/>
		<path id="XMLID_1551_" class="st0" d="M-65.7,213.4"/>
		<path id="XMLID_1549_" class="st0" d="M-64.1,211.4"/>
		<circle id="XMLID_1548_" class="st1" cx="-64.1" cy="211.4" r="5.9"/>
		<circle id="XMLID_1547_" class="st1" cx="-32.5" cy="248.7" r="5.9"/>
		<circle id="XMLID_1552_" class="st1" cx="23.1" cy="204.5" r="5.9"/>
		<circle id="XMLID_1553_" class="st1" cx="67.3" cy="219.3" r="5.9"/>
		<circle id="XMLID_1554_" class="st1" cx="109.7" cy="185.3" r="5.9"/>
		<circle id="XMLID_1555_" class="st1" cx="160.3" cy="222.7" r="5.9"/>
	</g>
	<line id="XMLID_1566_" class="st0" x1="-85" y1="323" x2="187" y2="323"/>
	<path id="XMLID_1568_" class="st1" d="M-55.9,323"/>
	<g id="XMLID_1807_">
		<path id="XMLID_1557_" class="st1" d="M-14.7,323h-16v-47.4c0-3.4,2.8-6.2,6.2-6.2h3.8c3.4,0,6.2,2.8,6.2,6.2V323H-14.7z"/>
		<g id="XMLID_1765_">
			<path id="XMLID_1559_" class="st1" d="M57.9,323H41.8v-65.6c0-3.4,2.8-6.2,6.2-6.2h3.8c3.4,0,6.2,2.8,6.2,6.2L57.9,323L57.9,323z
				"/>
		</g>
		<path id="XMLID_1561_" class="st1" d="M130.6,323h-16.1v-47.4c0-3.4,2.8-6.2,6.2-6.2h3.8c3.4,0,6.2,2.8,6.2,6.2L130.6,323
			L130.6,323z"/>
		<path id="XMLID_1565_" class="st1" d="M-55.9,269.4"/>
		<g id="XMLID_1768_">
			<path id="XMLID_1556_" class="st1" d="M-51,323h-16.1v-55.1c0-3.4,2.8-6.2,6.2-6.2h3.8c3.4,0,6.2,2.8,6.2,6.2L-51,323L-51,323z"
				/>
			<g id="XMLID_1577_">
				<g id="XMLID_1570_">
					<line id="XMLID_1569_" class="st0" x1="-53.4" y1="263" x2="-67.1" y2="272.9"/>
					<line id="XMLID_1567_" class="st0" x1="-51" y1="269.4" x2="-67.1" y2="281.2"/>
				</g>
				<g id="XMLID_1571_">
					<line id="XMLID_1573_" class="st0" x1="-51.4" y1="279.5" x2="-66.8" y2="290.6"/>
					<line id="XMLID_1572_" class="st0" x1="-51.4" y1="288" x2="-66.8" y2="298.9"/>
				</g>
				<line id="XMLID_1574_" class="st0" x1="-51.4" y1="297" x2="-66.8" y2="307.9"/>
				<line id="XMLID_1575_" class="st0" x1="-51.5" y1="306.4" x2="-66.8" y2="317.3"/>
				<line id="XMLID_1576_" class="st0" x1="-51.4" y1="315.7" x2="-61" y2="322.6"/>
			</g>
		</g>
		<g id="XMLID_1806_">
			<path id="XMLID_1562_" class="st1" d="M166.9,323h-16.1v-47.4c0-3.4,2.8-6.2,6.2-6.2h3.8c3.4,0,6.2,2.8,6.2,6.2V323H166.9z"/>
			<g id="XMLID_1622_">
				<g id="XMLID_1583_">
					<line id="XMLID_1585_" class="st0" x1="165" y1="272.1" x2="151" y2="282"/>
					<line id="XMLID_1584_" class="st0" x1="166.4" y1="279.3" x2="150.8" y2="290.7"/>
				</g>
				<g id="XMLID_1580_">
					<line id="XMLID_1582_" class="st0" x1="166.7" y1="288.9" x2="151" y2="300"/>
					<line id="XMLID_1581_" class="st0" x1="166.4" y1="297.6" x2="150.8" y2="308.7"/>
				</g>
				<line id="XMLID_1579_" class="st0" x1="166.7" y1="306.4" x2="150.8" y2="317.7"/>
				<line id="XMLID_1578_" class="st0" x1="166.7" y1="315.7" x2="156.4" y2="323"/>
			</g>
		</g>
		<g id="XMLID_1767_">
			<path id="XMLID_1558_" class="st1" d="M21.6,323H5.5v-65.6c0-3.4,2.8-6.2,6.2-6.2h3.8c3.4,0,6.2,2.8,6.2,6.2L21.6,323L21.6,323z"
				/>
			<g id="XMLID_1766_">
				<g id="XMLID_1586_">
					<g id="XMLID_1593_">
						<line id="XMLID_1595_" class="st0" x1="19.2" y1="252.8" x2="5.6" y2="262.7"/>
						<line id="XMLID_1594_" class="st0" x1="21.6" y1="259.3" x2="5.6" y2="271"/>
					</g>
					<g id="XMLID_1590_">
						<line id="XMLID_1592_" class="st0" x1="21.2" y1="269.4" x2="5.9" y2="280.4"/>
						<line id="XMLID_1591_" class="st0" x1="21.2" y1="277.9" x2="5.9" y2="288.8"/>
					</g>
					<line id="XMLID_1589_" class="st0" x1="21.2" y1="286.8" x2="5.9" y2="297.7"/>
					<line id="XMLID_1588_" class="st0" x1="21.2" y1="296.2" x2="5.8" y2="307.1"/>
					<line id="XMLID_1587_" class="st0" x1="21.2" y1="305.6" x2="5.9" y2="316"/>
				</g>
				<line id="XMLID_1596_" class="st0" x1="21.6" y1="314.4" x2="8" y2="323"/>
			</g>
		</g>
		<g id="XMLID_1563_">
			<path id="XMLID_1560_" class="st1" d="M94.3,323H78.2v-74.6c0-3.4,2.8-6.2,6.2-6.2h3.8c3.4,0,6.2,2.8,6.2,6.2L94.3,323L94.3,323z
				"/>
			<g id="XMLID_1764_">
				<g id="XMLID_1609_">
					<g id="XMLID_1611_">
						<g id="XMLID_1618_">
							<line id="XMLID_1620_" class="st0" x1="91.8" y1="244.4" x2="78.2" y2="254.3"/>
							<line id="XMLID_1619_" class="st0" x1="94.3" y1="250.9" x2="78.2" y2="262.7"/>
						</g>
						<g id="XMLID_1615_">
							<line id="XMLID_1617_" class="st0" x1="93.9" y1="261" x2="78.5" y2="272.1"/>
							<line id="XMLID_1616_" class="st0" x1="93.9" y1="269.5" x2="78.5" y2="280.4"/>
						</g>
						<line id="XMLID_1614_" class="st0" x1="93.9" y1="278.5" x2="78.5" y2="289.4"/>
						<line id="XMLID_1613_" class="st0" x1="93.8" y1="287.8" x2="78.4" y2="298.7"/>
						<line id="XMLID_1612_" class="st0" x1="93.9" y1="297.2" x2="78.5" y2="307.6"/>
					</g>
					<line id="XMLID_1610_" class="st0" x1="94.3" y1="306" x2="78.5" y2="316"/>
				</g>
				<line id="XMLID_1621_" class="st0" x1="94.3" y1="314.4" x2="80.6" y2="323"/>
			</g>
		</g>
	</g>
</g>
</svg>
