<?xml version="1.0" encoding="utf-8"?>
<!-- Generator: Adobe Illustrator 19.0.0, SVG Export Plug-In . SVG Version: 6.00 Build 0)  -->
<svg version="1.1" id="圖層_1" xmlns="http://www.w3.org/2000/svg" xmlns:xlink="http://www.w3.org/1999/xlink" x="0px" y="0px"
	 viewBox="-199 41 700 700" style="enable-background:new -199 41 700 700;" xml:space="preserve">
<g>
	<g>
		<path d="M385.7,422.5c0,0.3-0.2,0.5-0.5,0.5c-1.9,0-4,1-5.9,2c-2,1-4,2-6,2c-2.2,0-4.3-1.1-6.4-2.1c-1.9-1-3.7-1.9-5.5-1.9
			c-2,0-4,1-6,2c-1.9,1-3.9,2-5.9,2c-2.3,0-4.4-1.1-6.5-2.1c-1.9-1-3.7-1.9-5.4-1.9c-2.1,0-4.1,1-6.1,2s-3.9,2-5.8,2
			c-2.4,0-4.6-1.1-6.7-2.2c-1.8-0.9-3.6-1.8-5.2-1.8c-2.3,0-4.4,1.1-6.5,2.2c-1.9,1-3.7,1.9-5.4,1.9c-0.3,0-0.5-0.2-0.5-0.5
			s0.2-0.5,0.5-0.5c1.5,0,3.1-0.8,4.9-1.7c2.1-1.1,4.5-2.3,7-2.3c1.9,0,3.7,0.9,5.7,1.9s4.1,2.1,6.2,2.1c1.6,0,3.4-0.8,5.3-1.8
			c2.1-1.1,4.3-2.2,6.6-2.2c2,0,3.9,1,5.9,2c1.9,1,4,2,6,2c1.8,0,3.6-0.9,5.5-1.9c2-1,4.2-2.1,6.4-2.1c2,0,4.1,1,6,2s3.9,2,5.9,2
			c1.7,0,3.6-0.9,5.5-1.9c2.1-1,4.2-2.1,6.4-2.1C385.5,422.1,385.7,422.2,385.7,422.5z"/>
		<path d="M91,515.7c0,0.3-0.2,0.5-0.5,0.5c-1.6,0-3.4,1-5,2c-1.7,1-3.4,2-5.2,2c-1.9,0-3.7-1.1-5.5-2.1c-1.6-1-3.1-1.9-4.6-1.9
			c-1.6,0-3.3,1-5,2c-1.6,1-3.4,2-5.1,2c-2,0-3.8-1-5.6-2.1c-1.6-1-3.2-1.9-4.6-1.9c-1.8,0-3.5,1-5.2,2s-3.3,2-5,2l0,0
			c-2.1,0-4-1.1-5.8-2.2c-1.6-0.9-3.1-1.8-4.4-1.8c-1.9,0-3.7,1.1-5.5,2.1c-1.6,1-3.1,1.9-4.6,1.9c-0.3,0-0.5-0.2-0.5-0.5
			s0.2-0.5,0.5-0.5c1.2,0,2.6-0.8,4.1-1.7c1.8-1.1,3.8-2.3,6-2.3c1.6,0,3.2,0.9,4.9,1.9c1.7,1.1,3.5,2.1,5.3,2.1l0,0
			c1.4,0,2.9-0.9,4.5-1.8c1.8-1.1,3.7-2.2,5.7-2.2c1.7,0,3.4,1,5.1,2c1.7,1,3.4,2,5.1,2c1.4,0,3-0.9,4.6-1.9c1.8-1,3.7-2.1,5.6-2.1
			c1.8,0,3.5,1,5.2,2c1.6,1,3.3,2,5,2c1.5,0,3.1-0.9,4.7-1.9c1.8-1,3.6-2.1,5.5-2.1C90.9,515.2,91,515.4,91,515.7z"/>
		<path d="M323.2,399.3c0,0.3-0.2,0.5-0.5,0.5c-1.4,0-2.9,1-4.3,2s-3,2-4.5,2l0,0c-1.7,0-3.3-1.1-4.9-2.2c-1.4-0.9-2.8-1.8-4-1.8
			c-1.5,0-3,1-4.4,2c-1.5,1-3,2-4.5,2c-1.8,0-3.4-1.1-5-2.2c-1.3-0.9-2.6-1.8-3.8-1.8c-1.6,0-3.1,1.1-4.6,2.1s-2.9,1.9-4.3,1.9l0,0
			c-2,0-3.8-1.2-5.4-2.3c-1.3-0.9-2.5-1.7-3.5-1.7c-0.3,0-0.5-0.2-0.5-0.5s0.2-0.5,0.5-0.5c1.3,0,2.6,0.9,4,1.9
			c1.5,1,3.1,2.1,4.8,2.1l0,0c1.1,0,2.4-0.9,3.7-1.8c1.6-1.1,3.3-2.2,5.1-2.2c1.5,0,2.9,1,4.4,2s3,2,4.5,2c1.2,0,2.5-0.9,3.9-1.8
			c1.6-1.1,3.2-2.2,5-2.2c1.5,0,3,1,4.5,2c1.4,1,2.9,2,4.3,2l0,0c1.3,0,2.6-0.9,4-1.9c1.6-1,3.2-2.1,4.9-2.1l0,0
			C322.8,398.8,323.2,399,323.2,399.3z"/>
		<path d="M30.3,489.5c1.4,1,2.9,2,4.3,2c0.3,0,0.5,0.2,0.5,0.5s-0.2,0.5-0.5,0.5c-1.7,0-3.3-1-4.9-2.1c-1.4-1-2.8-1.9-4-1.9
			c-1.4,0-2.9,1-4.3,2s-3,2-4.5,2c-1.8,0-3.4-1.1-5-2.2c-1.4-0.9-2.7-1.8-3.9-1.8c-1.5,0-3,1-4.5,2s-2.9,2-4.4,2l0,0
			c-1.8,0-3.5-1.1-5.1-2.2c-1.3-0.9-2.6-1.8-3.7-1.8c-1.7,0-3.3,1-4.8,2.1c-1.4,1-2.7,1.9-4,1.9l0,0c-0.3,0-0.5-0.2-0.5-0.5
			s0.2-0.5,0.5-0.5c1,0,2.2-0.8,3.5-1.7c1.6-1.1,3.4-2.3,5.4-2.3c1.4,0,2.8,0.9,4.3,1.9c1.5,1.1,3.1,2.1,4.6,2.1l0,0
			c1.1,0,2.4-0.9,3.8-1.8c1.6-1.1,3.2-2.2,5-2.2c1.5,0,3,1,4.5,2s3,2,4.4,2c1.3,0,2.6-0.8,4-1.8c1.6-1.1,3.2-2.2,4.9-2.2
			C27.5,487.5,29,488.5,30.3,489.5z"/>
		<path d="M79.5,451.6c0,0.3-0.2,0.5-0.5,0.5c-1.9,0-4,1-5.9,2c-2,1-4,2-6,2c-2.2,0-4.3-1.1-6.4-2.1c-1.9-1-3.7-1.9-5.5-1.9
			c-2,0-4,1-6,2c-1.9,1-3.9,2-5.9,2c-2.3,0-4.4-1.1-6.5-2.1c-1.9-1-3.7-1.9-5.4-1.9c-2.1,0-4.1,1-6.1,2s-3.9,2-5.8,2
			c-2.4,0-4.6-1.1-6.7-2.2c-1.8-0.9-3.6-1.8-5.2-1.8c-2.3,0-4.4,1.1-6.5,2.2c-1.9,0.9-3.7,1.8-5.4,1.8c-0.3,0-0.5-0.2-0.5-0.5
			s0.2-0.5,0.5-0.5c1.5,0,3.1-0.8,4.9-1.7c2.1-1.1,4.5-2.3,7-2.3c1.9,0,3.7,0.9,5.7,1.9s4.1,2.1,6.2,2.1c1.6,0,3.4-0.8,5.3-1.8
			c2.1-1.1,4.3-2.2,6.6-2.2c2,0,3.9,1,5.9,2c1.9,1,4,2,6,2c1.8,0,3.6-0.9,5.5-1.9c2-1,4.2-2.1,6.4-2.1c2,0,4.1,1,6,2s3.9,2,5.9,2
			c1.7,0,3.6-0.9,5.5-1.9c2.1-1,4.2-2.1,6.4-2.1C79.3,451.1,79.5,451.3,79.5,451.6z"/>
		<path d="M265.5,517.2c1.4,1,2.9,2,4.3,2c0.3,0,0.5,0.2,0.5,0.5s-0.2,0.5-0.5,0.5c-1.7,0-3.3-1-4.9-2.1c-1.4-1-2.8-1.9-4-1.9
			c-1.4,0-2.9,1-4.3,2s-3,2-4.5,2c-1.8,0-3.4-1.1-5-2.2c-1.4-0.9-2.7-1.8-3.9-1.8c-1.5,0-3,1-4.5,2s-2.9,2-4.4,2
			c-1.8,0-3.5-1.1-5.1-2.2c-1.3-0.9-2.6-1.8-3.7-1.8c-1.7,0-3.3,1-4.8,2.1c-1.4,1-2.7,1.9-4,1.9c-0.3,0-0.5-0.2-0.5-0.5
			s0.2-0.5,0.5-0.5c1,0,2.2-0.8,3.5-1.7c1.6-1.1,3.4-2.3,5.4-2.3c1.4,0,2.8,0.9,4.3,1.9c1.5,1.1,3.1,2.1,4.6,2.1
			c1.1,0,2.4-0.9,3.8-1.8c1.6-1.1,3.2-2.2,5-2.2c1.5,0,3,1,4.5,2s3,2,4.4,2c1.3,0,2.6-0.8,4-1.8c1.6-1.1,3.2-2.2,4.9-2.2
			C262.6,515.2,264.1,516.3,265.5,517.2z"/>
		<path d="M357.9,368.7c0,0.3-0.2,0.5-0.5,0.5c-1.4,0-2.9,1-4.3,2s-3,2-4.5,2c-1.7,0-3.3-1.1-4.9-2.2c-1.4-0.9-2.8-1.8-4-1.8
			c-1.5,0-3,1-4.4,2c-1.5,1-3,2-4.5,2c-1.8,0-3.4-1.1-5-2.2c-1.4-0.9-2.7-1.8-3.9-1.8c-1.6,0-3.1,1.1-4.6,2.1s-2.9,1.9-4.3,1.9
			c-2,0-3.8-1.2-5.4-2.3c-1.3-0.9-2.5-1.7-3.5-1.7c-0.3,0-0.5-0.2-0.5-0.5s0.2-0.5,0.5-0.5c1.3,0,2.6,0.9,4,1.9
			c1.5,1,3.1,2.1,4.8,2.1c1.1,0,2.4-0.9,3.7-1.8c1.6-1.1,3.3-2.2,5.1-2.2c1.5,0,2.9,1,4.4,2s3,2,4.5,2c1.2,0,2.5-0.9,3.9-1.8
			c1.6-1.1,3.2-2.2,5-2.2c1.5,0,3,1,4.5,2c1.4,1,2.9,2,4.3,2c1.3,0,2.6-0.9,4-1.9c1.6-1,3.2-2.1,4.9-2.1l0,0
			C357.5,368.2,357.7,368.4,357.9,368.7z"/>
		<path d="M221.8,588.4c0,0.3-0.2,0.5-0.5,0.5c-1.9,0-4,1-5.9,2c-2,1-4,2-6,2c-2.2,0-4.3-1.1-6.4-2.1c-1.9-1-3.7-1.9-5.5-1.9
			c-2,0-4,1-6,2c-1.9,1-3.9,2-5.9,2l0,0c-2.3,0-4.4-1.1-6.5-2.1c-1.9-1-3.7-1.9-5.4-1.9c-2.1,0-4.1,1-6.1,2s-3.9,2-5.8,2
			c-2.4,0-4.6-1.1-6.7-2.2c-1.8-0.9-3.6-1.8-5.2-1.8l0,0c-2.3,0-4.4,1.1-6.5,2.2c-1.9,0.9-3.7,1.8-5.4,1.8c-0.3,0-0.5-0.2-0.5-0.5
			s0.2-0.5,0.5-0.5c1.5,0,3.1-0.8,4.9-1.7c2.1-1.1,4.5-2.3,7-2.3l0,0c1.9,0,3.7,0.9,5.7,1.9s4.1,2.1,6.2,2.1c1.6,0,3.4-0.8,5.3-1.8
			c2.1-1.1,4.3-2.2,6.6-2.2c2,0,3.9,1,5.9,2c1.9,1,4,2,6,2l0,0c1.8,0,3.6-0.9,5.5-1.9c2-1,4.2-2.1,6.4-2.1c2,0,4.1,1,6,2
			s3.9,2,5.9,2c1.7,0,3.6-0.9,5.5-1.9c2.1-1,4.2-2.1,6.4-2.1C221.6,587.9,221.8,588.1,221.8,588.4z"/>
		<path d="M231.5,219.4c1.4,1,2.9,2,4.3,2l0,0l0,0c0.3,0,0.5,0.2,0.5,0.5s-0.2,0.5-0.5,0.5l0,0c-1.7,0-3.3-1-4.9-2.1
			c-1.4-1-2.8-1.9-4-1.9c-1.4,0-2.9,1-4.3,2c-1.5,1-3,2-4.5,2c-1.8,0-3.4-1.1-5-2.2c-1.4-0.9-2.7-1.8-3.9-1.8c-1.5,0-3,1-4.5,2
			s-2.9,2-4.4,2c-1.8,0-3.5-1.1-5.1-2.2c-1.3-0.9-2.6-1.8-3.7-1.8c-1.7,0-3.3,1-4.8,2.1c-1.4,1-2.7,1.9-4,1.9
			c-0.3,0-0.5-0.2-0.5-0.5s0.2-0.5,0.5-0.5c1,0,2.2-0.8,3.5-1.7c1.6-1.1,3.4-2.3,5.4-2.3c1.4,0,2.8,0.9,4.3,1.9
			c1.5,1.1,3.1,2.1,4.6,2.1c1.1,0,2.4-0.9,3.8-1.8c1.6-1.1,3.2-2.2,5-2.2c1.5,0,3,1,4.5,2s3,2,4.4,2c1.3,0,2.6-0.8,4-1.8
			c1.6-1.1,3.2-2.2,4.9-2.2C228.6,217.4,230.2,218.5,231.5,219.4z"/>
	</g>
</g>
</svg>
