<?xml version="1.0" encoding="utf-8"?>
<!-- Generator: Adobe Illustrator 19.0.0, SVG Export Plug-In . SVG Version: 6.00 Build 0)  -->
<svg version="1.1" xmlns="http://www.w3.org/2000/svg" xmlns:xlink="http://www.w3.org/1999/xlink" x="0px" y="0px"
	 viewBox="0 0 700 700" style="enable-background:new 0 0 700 700;" xml:space="preserve">
<style type="text/css">
	.st0{ opacity:0.15;fill:url(#bg-gradient);enable-background:new; }
	.st1{fill:none;stroke:#000000;stroke-miterlimit:10;}
	.st2{fill:none;stroke:#000000;stroke-linecap:round;stroke-linejoin:round;}
	.st3{fill:none;stroke:#000000;stroke-linecap:round;stroke-linejoin:round;stroke-dasharray:7.9304,7.9304;}
	.st4{fill:none;stroke:#000000;stroke-miterlimit:10;stroke-dasharray:10.0052,10.0052;}
	.st5{fill:none;stroke:#231815;stroke-linecap:round;stroke-linejoin:round;stroke-miterlimit:10;}
	.st6{fill:none;stroke:#000000;stroke-linecap:round;stroke-linejoin:round;stroke-miterlimit:10;}
	.st7{fill:none;stroke:#000000;stroke-linecap:round;stroke-miterlimit:10;}
</style>

<!-- 中間台灣周圍 -->
<g class="svg-around">
	<g>
		<path d="M584.2,386.1c-2.2,0-4.3-1.1-6.4-2.1c-1.9-1-3.8-1.9-5.5-1.9c-2,0-4,1-5.9,2c-1.9,1-4,2-6,2
			c-2.2,0-4.4-1.1-6.4-2.1c-1.9-1-3.7-1.9-5.5-1.9c-2,0-4.1,1-6,2c-2,1-3.9,2-5.9,2c-2.3,0-4.5-1.1-6.6-2.2c-1.9-1-3.7-1.8-5.3-1.8
			c-2.1,0-4.2,1.1-6.2,2.1c-2,1-3.8,1.9-5.7,1.9c-2.5,0-4.9-1.2-7-2.3c-1.8-0.9-3.4-1.7-4.9-1.7c-0.3,0-0.5-0.2-0.5-0.5
			s0.2-0.5,0.5-0.5c1.7,0,3.5,0.9,5.4,1.9c2.1,1.1,4.2,2.2,6.5,2.2c1.6,0,3.4-0.9,5.2-1.8c2.1-1.1,4.3-2.2,6.7-2.2
			c1.9,0,3.8,1,5.8,2c2,1,4,2,6.1,2c1.7,0,3.5-0.9,5.4-1.9c2.1-1,4.2-2.1,6.5-2.1c2,0,4,1,5.9,2c2,1,4,2,6,2c1.8,0,3.6-0.9,5.5-1.9
			c2.1-1,4.2-2.1,6.4-2.1c2,0,4,1,6,2c1.9,1,4,2,5.9,2c0.3,0,0.5,0.2,0.5,0.5S584.5,386.1,584.2,386.1z"/>
		<path d="M289.7,479.2c-1.9,0-3.7-1.1-5.5-2.1c-1.6-1-3.2-1.9-4.7-1.9c-1.7,0-3.4,1-5,2c-1.7,1-3.4,2-5.2,2
			c-1.9,0-3.8-1.1-5.6-2.1c-1.6-1-3.2-1.9-4.6-1.9c-1.7,0-3.4,1-5.1,2c-1.7,1-3.4,2-5.1,2c-2,0-3.9-1.1-5.7-2.2
			c-1.6-0.9-3.1-1.8-4.5-1.8c0,0,0,0,0,0c-1.8,0-3.6,1-5.3,2.1c-1.7,1-3.3,1.9-4.9,1.9c-2.2,0-4.2-1.2-6-2.3
			c-1.5-0.9-2.9-1.7-4.1-1.7c-0.3,0-0.5-0.2-0.5-0.5s0.2-0.5,0.5-0.5c1.5,0,3,0.9,4.6,1.9c1.8,1,3.6,2.1,5.5,2.1
			c1.3,0,2.8-0.9,4.4-1.8c1.8-1.1,3.7-2.2,5.8-2.2c0,0,0,0,0,0c1.7,0,3.3,1,5,2c1.7,1,3.4,2,5.2,2c1.4,0,3-0.9,4.6-1.9
			c1.8-1.1,3.6-2.1,5.6-2.1c1.7,0,3.5,1,5.1,2c1.7,1,3.4,2,5,2c1.5,0,3-0.9,4.6-1.9c1.8-1,3.6-2.1,5.5-2.1c1.8,0,3.5,1,5.2,2
			c1.6,1,3.4,2,5,2c0.3,0,0.5,0.2,0.5,0.5S289.9,479.2,289.7,479.2z"/>
		<path d="M521.6,362.8L521.6,362.8c-1.7,0-3.3-1.1-4.9-2.1c-1.4-1-2.7-1.9-4-1.9l0,0c-1.4,0-2.9,1-4.3,2
			c-1.5,1-3,2-4.5,2c-1.8,0-3.4-1.1-5-2.2c-1.4-0.9-2.7-1.8-3.9-1.8c-1.5,0-3,1-4.5,2c-1.5,1-2.9,2-4.4,2c-1.8,0-3.5-1.1-5.1-2.2
			c-1.3-0.9-2.6-1.8-3.7-1.8c0,0,0,0,0,0c-1.7,0-3.3,1.1-4.8,2.1c-1.4,1-2.7,1.9-4,1.9c-0.3,0-0.5-0.2-0.5-0.5s0.2-0.5,0.5-0.5
			c1,0,2.2-0.8,3.5-1.7c1.6-1.1,3.4-2.3,5.4-2.3c0,0,0,0,0,0c1.4,0,2.8,0.9,4.3,1.9c1.5,1,3,2.1,4.6,2.1c1.2,0,2.5-0.9,3.8-1.8
			c1.6-1.1,3.2-2.2,5-2.2c1.5,0,3,1,4.5,2c1.4,1,2.9,2,4.4,2c1.2,0,2.6-0.9,4-1.8c1.6-1.1,3.2-2.2,4.9-2.2c0,0,0,0,0,0
			c1.5,0,3.1,1,4.5,2c1.4,1,2.9,2,4.3,2c0.3,0,0.5,0.2,0.5,0.5S521.8,362.8,521.6,362.8z"/>
		<path d="M224.9,451.5c-1.7,0-3.3-1.1-4.9-2.2c-1.4-1-2.7-1.8-4-1.8c-1.4,0-2.9,1-4.4,2c-1.5,1-3,2-4.5,2
			c-1.8,0-3.4-1.1-5-2.2c-1.4-0.9-2.7-1.8-3.8-1.8c0,0,0,0,0,0c-1.5,0-3.1,1-4.6,2.1c-1.5,1-2.9,1.9-4.3,1.9c-2,0-3.8-1.2-5.4-2.3
			c-1.3-0.9-2.5-1.7-3.5-1.7c-0.3,0-0.5-0.2-0.5-0.5s0.2-0.5,0.5-0.5l0,0c1.3,0,2.6,0.9,4,1.9c1.5,1.1,3.1,2.1,4.8,2.1
			c1.1,0,2.4-0.9,3.7-1.8c1.6-1.1,3.3-2.2,5.1-2.2c0,0,0,0,0,0c1.5,0,2.9,1,4.4,2c1.5,1,3,2,4.5,2c1.2,0,2.5-0.9,3.9-1.8
			c1.6-1.1,3.2-2.2,5-2.2c1.5,0,3.1,1,4.5,2c1.4,1,2.9,2,4.3,2c1.2,0,2.6-0.9,4-1.9c1.6-1.1,3.2-2.1,4.9-2.1c0.3,0,0.5,0.2,0.5,0.5
			s-0.2,0.5-0.5,0.5c-1.4,0-2.9,1-4.3,2C228,450.5,226.5,451.5,224.9,451.5z"/>
		<path d="M278,415.1c-2.2,0-4.3-1.1-6.4-2.1c-1.9-1-3.8-1.9-5.5-1.9c-2,0-4,1-5.9,2c-1.9,1-4,2-6,2
			c-2.2,0-4.4-1.1-6.4-2.1c-1.9-1-3.7-1.9-5.5-1.9c-2,0-4.1,1-6,2c-2,1-3.9,2-5.9,2c-2.3,0-4.5-1.1-6.6-2.2c-1.9-1-3.7-1.8-5.3-1.8
			c-2.1,0-4.2,1.1-6.2,2.1c-2,1-3.8,1.9-5.7,1.9c-2.5,0-4.9-1.2-7-2.3c-1.8-0.9-3.4-1.7-4.9-1.7c-0.3,0-0.5-0.2-0.5-0.5
			s0.2-0.5,0.5-0.5c1.7,0,3.5,0.9,5.4,1.8c2.1,1.1,4.2,2.2,6.5,2.2c1.6,0,3.4-0.9,5.2-1.8c2.1-1.1,4.3-2.2,6.7-2.2
			c1.9,0,3.8,1,5.8,2c2,1,4,2,6.1,2c1.7,0,3.5-0.9,5.4-1.9c2.1-1,4.2-2.1,6.5-2.1c2,0,4,1,5.9,2c2,1,4,2,6,2c1.8,0,3.6-0.9,5.5-1.9
			c2.1-1,4.2-2.1,6.4-2.1c2,0,4,1,6,2c1.9,1,4,2,5.9,2c0.3,0,0.5,0.2,0.5,0.5S278.3,415.1,278,415.1z"/>
		<path d="M460.1,479.2c-1.7,0-3.3-1.1-4.9-2.2c-1.4-1-2.7-1.8-4-1.8c-1.4,0-2.9,1-4.4,2c-1.5,1-3,2-4.5,2
			c-1.8,0-3.4-1.1-5-2.2c-1.4-0.9-2.7-1.8-3.8-1.8c-1.5,0-3.1,1-4.6,2.1c-1.5,1-2.9,1.9-4.3,1.9c-2,0-3.8-1.2-5.4-2.3
			c-1.3-0.9-2.5-1.7-3.5-1.7c-0.3,0-0.5-0.2-0.5-0.5s0.2-0.5,0.5-0.5c1.3,0,2.6,0.9,4,1.9c1.5,1.1,3.1,2.1,4.8,2.1
			c1.1,0,2.4-0.9,3.7-1.8c1.6-1.1,3.3-2.2,5.1-2.2c1.5,0,2.9,1,4.4,2c1.5,1,3,2,4.5,2c1.2,0,2.5-0.9,3.9-1.8c1.6-1.1,3.2-2.2,5-2.2
			c1.5,0,3.1,1,4.5,2c1.4,1,2.9,2,4.3,2c1.2,0,2.6-0.9,4-1.9c1.6-1.1,3.2-2.1,4.9-2.1c0.3,0,0.5,0.2,0.5,0.5s-0.2,0.5-0.5,0.5
			c-1.4,0-2.9,1-4.3,2C463.1,478.1,461.6,479.2,460.1,479.2z"/>
		<path d="M556.2,332.2L556.2,332.2c-1.7,0-3.3-1.1-4.9-2.1c-1.4-1-2.7-1.9-4-1.9c-1.4,0-2.9,1-4.3,2
			c-1.5,1-3,2-4.5,2c-1.8,0-3.4-1.1-5-2.2c-1.4-0.9-2.7-1.8-3.9-1.8c-1.5,0-3,1-4.5,2c-1.5,1-2.9,2-4.4,2c-1.8,0-3.5-1.1-5.1-2.2
			c-1.3-0.9-2.6-1.8-3.7-1.8c-1.7,0-3.3,1.1-4.8,2.1c-1.4,1-2.7,1.9-4,1.9c-0.3,0-0.5-0.2-0.5-0.5s0.2-0.5,0.5-0.5
			c1,0,2.2-0.8,3.5-1.7c1.6-1.1,3.4-2.3,5.4-2.3c1.4,0,2.8,0.9,4.3,1.9c1.5,1,3,2.1,4.6,2.1c1.2,0,2.5-0.9,3.9-1.8
			c1.6-1.1,3.2-2.2,5-2.2c1.5,0,3,1,4.5,2c1.4,1,2.9,2,4.4,2c1.2,0,2.6-0.9,4-1.8c1.6-1.1,3.2-2.2,4.9-2.2c1.5,0,3.1,1,4.5,2
			c1.4,1,2.9,2,4.3,2c0.3,0,0.5,0.2,0.5,0.5C556.7,332,556.5,332.2,556.2,332.2z"/>
		<path d="M420.3,551.9c-2.2,0-4.3-1.1-6.4-2.1c-1.9-1-3.8-1.9-5.5-1.9c-2,0-4,1-5.9,2c-1.9,1-4,2-6,2
			c-2.2,0-4.4-1.1-6.4-2.1c-1.9-1-3.7-1.9-5.5-1.9h0c-2,0-4.1,1-6,2c-2,1-3.9,2-5.9,2c-2.3,0-4.5-1.1-6.6-2.2
			c-1.9-1-3.7-1.8-5.3-1.8c-2.1,0-4.2,1.1-6.2,2.1c-2,1-3.8,1.9-5.7,1.9c0,0,0,0,0,0c-2.5,0-4.9-1.2-7-2.3c-1.8-0.9-3.4-1.7-4.9-1.7
			c-0.3,0-0.5-0.2-0.5-0.5s0.2-0.5,0.5-0.5c1.7,0,3.5,0.9,5.4,1.8c2.1,1.1,4.2,2.2,6.5,2.2c0,0,0,0,0,0c1.6,0,3.4-0.9,5.2-1.8
			c2.1-1.1,4.3-2.2,6.7-2.2c1.9,0,3.8,1,5.8,2c2,1,4,2,6.1,2c1.7,0,3.5-0.9,5.4-1.9c2.1-1,4.2-2.1,6.5-2.1c0,0,0,0,0,0
			c2,0,4,1,5.9,2c2,1,4,2,6,2c1.8,0,3.6-0.9,5.5-1.9c2.1-1,4.2-2.1,6.4-2.1c2,0,4,1,6,2c1.9,1,4,2,5.9,2c0.3,0,0.5,0.2,0.5,0.5
			S420.6,551.9,420.3,551.9z"/>
		<path d="M426.1,181.4c-1.7,0-3.3-1.1-4.9-2.2c-1.4-1-2.7-1.8-4-1.8c-1.4,0-2.9,1-4.4,2c-1.5,1-3,2-4.5,2
			c-1.8,0-3.4-1.1-5-2.2c-1.4-0.9-2.7-1.8-3.8-1.8c-1.5,0-3.1,1-4.6,2.1c-1.5,1-2.9,1.9-4.3,1.9c-2,0-3.8-1.2-5.4-2.3
			c-1.3-0.9-2.5-1.7-3.5-1.7c-0.3,0-0.5-0.2-0.5-0.5s0.2-0.5,0.5-0.5c1.3,0,2.6,0.9,4,1.9c1.5,1.1,3.1,2.1,4.8,2.1
			c1.1,0,2.4-0.9,3.7-1.8c1.6-1.1,3.3-2.2,5.1-2.2c1.5,0,2.9,1,4.4,2c1.5,1,3,2,4.5,2c1.2,0,2.5-0.9,3.9-1.8c1.6-1.1,3.2-2.2,5-2.2
			c1.5,0,3,1,4.5,2c1.4,1,2.9,2,4.3,2c1.2,0,2.6-0.9,4-1.9c1.6-1.1,3.2-2.1,4.9-2.1c0,0,0,0,0,0c0.3,0,0.5,0.2,0.5,0.5
			c0,0.3-0.2,0.5-0.5,0.5l0,0c0,0,0,0,0,0c-1.4,0-2.9,1-4.3,2C429.2,180.3,427.6,181.4,426.1,181.4z"/>
	</g>
</g>

</svg>
